<?xml version="1.0" encoding="UTF-8"?>
<!-- Product-share, monochrome mask for the control panel nav. -->
<svg xmlns="http://www.w3.org/2000/svg" viewBox="1 1 30 30" fill="#000"><path d="m29 13h-4c-.5527344 0-1 .4477539-1 1v1h-3v2h3v1c0 .5522461.4472656 1 1 1h4c.5527344 0 1-.4477539 1-1v-4c0-.5522461-.4472656-1-1-1zm-2 4c-.5514526 0-1-.4486084-1-1 0-.5514526.4485474-1 1-1s1 .4485474 1 1c0 .5513916-.4485474 1-1 1z"/><path d="m2 12 8.5 4.7999992v9.2000008l-7.51404-4.420023c-.6108777-.3593406-.98596-1.0151405-.98596-1.7238693z"/><path d="m29 24h-4c-.5527344 0-1 .4477539-1 1v1h-4.6669922l-2.5760498-1.9320068-1.8679199 1.0987549 3.5113525 2.6330566c.1728516.1298828.3828125.2001953.5996094.2001953h5v1c0 .5522461.4472656 1 1 1h4c.5527344 0 1-.4477539 1-1v-4c0-.5522461-.4472656-1-1-1zm-2 4c-.5514526 0-1-.4486084-1-1 0-.5514526.4485474-1 1-1s1 .4485474 1 1c0 .5513916-.4485474 1-1 1z"/><path d="m20 12-8.5 4.7999992v9.2000008l7.51404-4.420023c.610878-.3593406.98596-1.0151405.98596-1.7238693z"/><path d="m29 2h-4c-.5527344 0-1 .4477539-1 1v1h-5c-.2167969 0-.4267578.0703125-.5996094.2001953l-3.5023193 2.6262817 1.8649292 1.1010132 2.5700073-1.9274902h4.6669922v1c0 .5522461.4472656 1 1 1h4c.5527344 0 1-.4477539 1-1v-4c0-.5522461-.4472656-1-1-1zm-2 4c-.5514526 0-1-.4486084-1-1 0-.5514526.4485474-1 1-1s1 .4485474 1 1c0 .5513916-.4485474 1-1 1z"/><path d="m2 11 9 5 9-5-8.0287142-4.7408533c-.6040449-.3455291-1.3385267-.3455291-1.9425716 0z"/></svg>
